<svg width="60" height="54" viewBox="0 0 60 54" fill="none" xmlns="http://www.w3.org/2000/svg">
<path d="M30.5128 0.00452839C13.9472 -0.27849 0.28755 12.9215 0.00453134 29.4872C-0.156223 38.88 4.03019 47.3219 10.6959 52.9358C11.1317 52.5555 11.5992 52.2068 12.1189 51.9238L21.0702 47.0411C22.2442 46.4004 22.9755 45.1698 22.9755 43.8317V40.1638C22.9755 40.1638 20.3479 37.0211 19.346 32.6547C18.5151 32.117 17.9581 31.1875 17.9581 30.1291V26.1147C17.9581 25.2317 18.3509 24.4426 18.9611 23.8902V18.0872C18.9611 18.0872 17.7691 9.0566 29.9989 9.0566C42.2287 9.0566 41.0366 18.0872 41.0366 18.0872V23.8902C41.6479 24.4426 42.0396 25.2317 42.0396 26.1147V30.1291C42.0396 31.4785 41.134 32.614 39.9045 32.9932C39.2196 35.1226 38.2313 37.1525 36.9249 38.9977C36.5955 39.463 36.2875 39.857 36.0181 40.1638V43.9245C36.0181 45.3091 36.8004 46.5758 38.0389 47.194L47.6242 51.986C48.1992 52.2736 48.7189 52.637 49.1977 53.0411C55.6619 47.6502 59.8381 39.5898 59.9932 30.5128C60.2785 13.9472 47.0796 0.287547 30.5128 0.00452839Z" fill="#556080"/>
</svg>
